{"title":"Cult.S01E10.720p.HDTV.X264-DIMENSION[P2PDL]","uid":8651851,"size":987985608,"categoryP":"video","categoryS":"hd___tv_shows","magnet":"?xt=urn:btih:85962af080b88f8b243f9cbcdd26129bb8dc5027&amp;dn=Cult.S01E10.720p.HDTV.X264-DIMENSION%5BP2PDL%5D&amp;tr=udp%3A%2F%2Ftracker.openbittorrent.com%3A80&amp;tr=udp%3A%2F%2Fopen.demonii.com%3A1337&amp;tr=udp%3A%2F%2Ftracker.coppersurfer.tk%3A6969&amp;tr=udp%3A%2F%2Fexodus.desync.com%3A6969","seeders":0,"leechers":1,"uploader":null,"files":2,"time":1373127097,"description":"Cult.S01E10.720p.HDTV.X264-DIMENSION\nAired 05.07.2013\n\n&quot;The Prophecy of St. Clare&quot;\n\nOn the set of the television show\nCult, Skye consoles Edie MacDonald,\nthe actress who plays Meadow, after\nshe confesses to being spooked by a\npair of figurines she recognizes\nfrom her childhood. Jeff and Skye\npay a visit to Edie's mother. Peter\ncontinues to spy on Skye. Meanwhile,\non the television show, Billy nears\nhis breaking point.  \n\nGeneral\nUnique ID                                : 244493318089840317195681924376637617715 (0xB7EFB343A9545B14BA1A7EDB26763633)\nComplete name                            : Cult.S01E10.720p.HDTV.X264-DIMENSION.mkv\nFormat                                   : Matroska\nFormat version                           : Version 2\nFile size                                : 942 MiB\nDuration                                 : 42mn 2s\nOverall bit rate                         : 3 134 Kbps\nEncoded date                             : UTC 2013-07-05 17:48:41\nWriting application                      : mkvmerge v3.1.0 ('Happy up here'wink.gif built on Jan 19 2010 12:09:24\nWriting library                          : libebml v0.7.9 + libmatroska v0.8.1\n\nVideo\nID                                       : 1\nFormat                                   : AVC\nFormat/Info                              : Advanced Video Codec\nFormat profile                           : &lt;a class=&quot;__cf_email__&quot; href=&quot;/cdn-cgi/l/email-protection&quot; data-cfemail=&quot;d29abbb5ba929ee6fce3&quot;&gt;[email&amp;#160;protected]&lt;/a&gt;&lt;script cf-hash='f9e31' type=&quot;text/javascript&quot;&gt;\n/* &lt;![CDATA[ */!function(){try{var t=&quot;currentScript&quot;in document?document.currentScript:function(){for(var t=document.getElementsByTagName(&quot;script&quot;),e=t.length;e--;)if(t[e].getAttribute(&quot;cf-hash&quot;))return t[e]}();if(t&amp;&amp;t.previousSibling){var e,r,n,i,c=t.previousSibling,a=c.getAttribute(&quot;data-cfemail&quot;);if(a){for(e=&quot;&quot;,r=parseInt(a.substr(0,2),16),n=2;a.length-n;n+=2)i=parseInt(a.substr(n,2),16)^r,e+=String.fromCharCode(i);e=document.createTextNode(e),c.parentNode.replaceChild(e,c)}}}catch(u){}}();/* ]]&gt; */&lt;/script&gt;\nFormat settings, CABAC                   : Yes\nFormat settings, ReFrames                : 8 frames\nCodec ID                                 : V_MPEG4/ISO/AVC\nDuration                                 : 42mn 2s\nBit rate                                 : 2 687 Kbps\nWidth                                    : 1 280 pixels\nHeight                                   : 720 pixels\nDisplay aspect ratio                     : 16:9\nFrame rate mode                          : Constant\nFrame rate                               : 23.976 fps\nColor space                              : YUV\nChroma subsampling                       : 4:2:0\nBit depth                                : 8 bits\nScan type                                : Progressive\nBits/(Pixel*Frame)                       : 0.122\nStream size                              : 808 MiB (86%)\nWriting library                          : x264 core 133 r2334 a3ac64b\nEncoding settings                        : cabac=1 / ref=8 / deblock=1:-2:-2 / analyse=0x3:0x113 / me=umh / subme=9 / psy=1 / psy_rd=1.00:0.00 / mixed_ref=1 / me_range=24 / chroma_me=1 / trellis=1 / 8x8dct=1 / cqm=0 / deadzone=21,11 / fast_pskip=0 / chroma_qp_offset=-2 / threads=18 / lookahead_threads=2 / sliced_threads=0 / nr=0 / decimate=1 / interlaced=0 / bluray_compat=0 / constrained_intra=0 / bframes=5 / b_pyramid=2 / b_adapt=2 / b_bias=0 / direct=3 / weightb=1 / open_gop=0 / weightp=2 / keyint=250 / keyint_min=23 / scenecut=40 / intra_refresh=0 / rc_lookahead=50 / rc=crf / mbtree=1 / crf=18.0 / qcomp=0.60 / qpmin=0 / qpmax=69 / qpstep=4 / ip_ratio=1.40 / aq=1:1.00\nLanguage                                 : English\nDefault                                  : No\nForced                                   : No\n\nAudio\nID                                       : 2\nFormat                                   : AC-3\nFormat/Info                              : Audio Coding 3\nMode extension                           : CM (complete main)\nFormat settings, Endianness              : Big\nCodec ID                                 : A_AC3\nDuration                                 : 42mn 2s\nBit rate mode                            : Constant\nBit rate                                 : 384 Kbps\nChannel(s)                               : 6 channels\nChannel positions                        : Front: L C R, Side: L R, LFE\nSampling rate                            : 48.0 KHz\nBit depth                                : 16 bits\nCompression mode                         : Lossy\nDelay relative to video                  : 64ms\nStream size                              : 115 MiB (12%)\nDefault                                  : Yes\nForced                                   : No","torrent":{"xt":"urn:btih:85962af080b88f8b243f9cbcdd26129bb8dc5027","amp;dn":"Cult.S01E10.720p.HDTV.X264-DIMENSION%5BP2PDL%5D","amp;tr":["udp%3A%2F%2Ftracker.openbittorrent.com%3A80","udp%3A%2F%2Fopen.demonii.com%3A1337","udp%3A%2F%2Ftracker.coppersurfer.tk%3A6969","udp%3A%2F%2Fexodus.desync.com%3A6969"],"infoHash":"85962af080b88f8b243f9cbcdd26129bb8dc5027","infoHashBuffer":{"type":"Buffer","data":[133,150,42,240,128,184,143,139,36,63,156,188,221,38,18,155,184,220,80,39]},"announce":[],"urlList":[]}}